<?xml version="1.0" encoding="UTF-8"?><svg id="a" xmlns="http://www.w3.org/2000/svg" viewBox="0 0 699.99 699.98"><defs><style>.b{fill:#3756f5;}.c{fill:#2ce3a0;}</style></defs><path class="b" d="M350,97.17c-139.64,0-252.83,113.2-252.83,252.82s113.2,252.82,252.83,252.82,252.82-113.2,252.82-252.82-113.2-252.82-252.82-252.82m0,94.52c87.28,0,158.3,71.02,158.3,158.3s-71.02,158.3-158.3,158.3-158.3-71.02-158.3-158.3,71.02-158.3,158.3-158.3"/><path class="c" d="M350,288.96c33.51,0,61.03,27.53,61.03,61.03s-27.52,61.04-61.03,61.04-61.04-27.52-61.04-61.04,27.52-61.03,61.04-61.03"/></svg>